<svg width="40" height="40" viewBox="0 0 40 40" fill="none" xmlns="http://www.w3.org/2000/svg">
<g clip-path="url(#clip0)">
<path d="M10.8284 24.4705C10.7777 24.5565 10.7611 24.5681 10.7611 24.5681C11.0084 25.0589 10.7263 25.308 10.3451 25.5394C10.0937 25.6916 9.87185 25.8858 9.62045 26.0381C9.39148 26.1871 9.33729 26.3382 9.53116 26.5779C9.69547 26.7758 9.83499 26.9911 9.96861 27.198C10.1932 27.5164 10.1744 27.63 9.86877 27.8457C9.38961 28.1838 8.90454 28.5134 8.44546 28.8624C8.29441 28.9815 8.15639 29.1542 8.08923 29.3396C7.86889 29.9218 7.69463 30.5342 7.47429 31.1163C7.41183 31.2733 7.28207 31.4402 7.14042 31.5025C6.92676 31.603 6.80967 31.3844 6.70326 31.2336C6.65597 31.1666 6.60042 31.1054 6.48931 30.983C6.46824 31.1986 6.43647 31.3465 6.42715 31.4911C6.39484 32.3924 6.36253 33.2937 6.32196 34.2008C6.29761 34.745 6.03795 34.9031 5.60784 34.5917C5.17773 34.2802 4.75233 33.9403 4.37884 33.5512C2.85297 31.9672 1.62096 30.1508 0.386591 28.3486C0.126485 27.9799 0.223125 27.7486 0.674161 27.6688C0.741464 27.659 0.822939 27.6517 0.896153 27.6503C1.48657 27.6102 1.98119 27.3993 2.4627 27.047C4.4997 25.5848 6.55444 24.1477 8.59501 22.708C9.03286 22.3991 9.08364 22.4009 9.47479 22.7273C9.59978 22.5011 9.73893 22.2774 9.84384 22.0403C9.88037 21.9518 9.83892 21.8053 9.79041 21.7015C9.67567 21.4687 9.42276 21.233 9.44149 21.0315C9.46612 20.8385 9.76475 20.6654 9.95946 20.5029C10.1436 20.3605 10.0549 20.2348 9.9603 20.1008C9.56423 19.5394 9.16816 18.978 8.77209 18.4166C8.68342 18.2909 8.58883 18.1569 8.50842 18.0253C8.40436 17.8603 8.37587 17.6796 8.55762 17.5514C8.7559 17.4115 8.92248 17.5073 9.04071 17.6749C9.25588 17.9623 9.46278 18.2556 9.66142 18.5547C9.78912 18.7532 9.91789 18.813 10.1575 18.7317C10.7171 18.5252 11.2722 18.6105 11.8003 18.903C11.9811 19.0014 12.1192 19.0043 12.2868 18.8735C12.4709 18.7311 12.6527 18.6028 12.8486 18.4772C12.9973 18.3722 13.0362 18.2695 12.9239 18.1103C12.8056 17.9427 12.7323 17.7686 12.9471 17.6171C13.1619 17.4655 13.3261 17.5755 13.4479 17.7657C13.546 17.9223 13.6476 17.926 13.7821 17.8185C14.0323 17.6295 14.2884 17.4488 14.5504 17.2765C14.6909 17.1774 14.7132 17.0863 14.621 16.938C14.4969 16.7621 14.4341 16.5679 14.6489 16.4164C14.872 16.259 15.0233 16.4033 15.1557 16.5734C15.2703 16.7184 15.3742 16.7078 15.5064 16.6146C15.7483 16.4313 15.9962 16.2565 16.2499 16.09C16.3904 15.9909 16.4576 15.8933 16.3311 15.7315C16.1928 15.553 16.1525 15.3556 16.3732 15.2124C16.5856 15.0751 16.7275 15.1884 16.8433 15.3701C16.9356 15.5184 17.0407 15.5447 17.1752 15.4372C17.4337 15.2423 17.7039 15.0642 17.9683 14.8776C18.1088 14.7786 18.1252 14.6791 18.033 14.5308C17.9289 14.3658 17.8496 14.1833 18.0644 14.0317C18.2792 13.8802 18.4494 13.9986 18.5735 14.1746C18.6799 14.3254 18.7838 14.3148 18.916 14.2216C19.1143 14.0817 19.2995 13.8882 19.5878 13.9986C19.622 14.0121 19.714 13.897 19.7624 13.8252C19.865 13.6901 19.9298 13.5189 20.0561 13.4172C20.4326 13.1265 20.835 12.8551 21.2292 12.5896C21.4027 12.4672 21.4865 12.3579 21.3221 12.1601C21.1874 12.0041 21.1872 11.8285 21.3631 11.6919C21.5448 11.5637 21.7043 11.6144 21.8202 11.7961C21.9455 12.0089 22.0801 11.9892 22.2477 11.8584C22.4731 11.6869 22.7044 11.5237 22.9417 11.3688C23.0904 11.2639 23.1576 11.1663 23.0417 10.9845C22.9294 10.8253 22.8584 10.637 23.0732 10.4854C23.288 10.3339 23.4499 10.4581 23.5823 10.6282C23.6828 10.7707 23.7903 10.7827 23.9248 10.6752C24.175 10.4862 24.4311 10.3055 24.6931 10.1332C24.8418 10.0283 24.85 9.93464 24.7412 9.79803C24.6029 9.61952 24.5685 9.43045 24.7833 9.27891C24.9898 9.13319 25.1376 9.25487 25.2534 9.43666C25.3575 9.60169 25.4756 9.59367 25.6243 9.48876C25.8226 9.34887 26.0149 9.20061 26.2108 9.07493C26.4481 8.92011 26.6463 8.78022 26.3934 8.45672C26.3461 8.38969 26.4167 8.13906 26.497 8.09498C26.6079 8.04179 26.843 8.07677 26.8962 8.15218C27.0771 8.42614 27.2412 8.36057 27.4276 8.20392C27.6164 8.03307 27.8254 8.04874 28.0299 8.18062C28.1362 8.24364 28.2508 8.30084 28.4055 8.3799C28.4231 8.22944 28.4502 8.10995 28.4489 7.98536C28.453 7.25459 28.4512 6.51543 28.4577 5.77044C28.4586 5.45605 28.9813 4.89906 29.2753 4.93003C29.4112 4.94715 29.5777 5.04296 29.6688 5.15444C30.0554 5.68486 30.4007 6.24443 30.7872 6.77485C30.9409 6.99271 31.1419 7.18979 31.3557 7.35264C31.4196 7.40801 31.612 7.34754 31.7111 7.2776C32.5432 6.70312 33.3634 6.11189 34.1896 5.52903C34.487 5.3192 34.7844 5.10937 35.0818 4.89954C35.4264 4.66895 35.5398 4.68935 35.7763 5.02451C35.8768 5.16695 35.9713 5.30101 36.0718 5.44345C36.326 5.80375 36.3049 5.93162 35.9414 6.18807C34.917 6.91082 33.8925 7.63356 32.8681 8.35631C32.7773 8.42042 32.684 8.49874 32.5872 8.55448C32.4244 8.65684 32.3548 8.76868 32.4187 8.99964C32.4507 9.11513 32.3399 9.3439 32.2302 9.43388C31.6967 9.83533 31.1515 10.22 30.6003 10.5963C30.3796 10.7395 30.2888 10.8914 30.4071 11.1468C30.4462 11.2196 30.438 11.3132 30.4687 11.3919C30.6095 11.7318 30.4987 11.9606 30.2001 12.1336C30.0313 12.2276 29.8543 12.3274 30.021 12.5988C30.0659 12.6801 30 12.9023 29.9091 12.9664C29.8265 13.0247 29.6116 13.0007 29.5359 12.9285C29.3728 12.7675 29.2524 12.7897 29.1013 12.9088C28.9255 13.0454 28.7461 13.1595 28.5643 13.2877C28.3578 13.4334 28.1135 13.5431 28.3358 13.8757C28.3712 13.9259 28.2828 14.1514 28.2049 14.1813C28.0963 14.2203 27.8849 14.2188 27.8176 14.1409C27.6592 13.9514 27.5399 14.0104 27.3971 14.1237C27.2378 14.2487 27.075 14.3511 26.9097 14.4676C26.6808 14.6166 26.4258 14.7463 26.6375 15.0989C26.6647 15.155 26.5751 15.3437 26.4866 15.3937C26.4063 15.4377 26.2114 15.4246 26.1559 15.3634C25.9537 15.1295 25.805 15.2344 25.6209 15.3769C25.4534 15.5077 25.2881 15.6242 25.1087 15.7383C24.9046 15.8698 24.7618 15.9831 24.9427 16.257C24.984 16.3157 24.9039 16.5353 24.8213 16.5936C24.7387 16.6519 24.5072 16.6395 24.4599 16.5725C24.2649 16.296 24.1174 16.4377 23.9356 16.5659C23.5556 16.834 23.1673 17.108 22.7873 17.3761C22.5536 17.5535 22.3623 17.563 22.1708 17.309C22.0088 17.097 21.8884 17.1192 21.8119 17.3615C21.8095 17.3757 21.8154 17.3841 21.8071 17.3899C21.4805 17.909 21.6556 18.3502 22.0221 18.7819C22.3093 19.1189 22.5529 19.4992 22.7988 19.8653C22.897 20.022 22.9538 20.2078 23.0354 20.3761C23.0745 20.4489 23.1052 20.5276 23.1608 20.5888C24.0981 21.5841 25.0294 22.571 26.1543 23.3586C26.3445 23.488 26.5619 23.5856 26.7356 23.7266C26.9093 23.8676 27.0724 24.0286 27.18 24.2162C27.3231 24.4541 27.3198 24.6949 27.1252 24.9452C26.5625 25.6559 26.0376 26.4027 25.4891 27.116C25.0998 27.6165 24.3488 27.7447 23.8219 27.4012C22.3674 26.4445 21.0568 25.3235 19.9693 23.9574C19.9397 23.9155 19.9102 23.8736 19.8723 23.8375C19.5177 23.4226 19.4445 23.4241 19.0149 23.7271C18.321 24.2167 17.6353 24.7005 16.9413 25.1901C16.743 25.33 16.6664 25.4845 16.7032 25.7471C16.8542 26.9081 16.9827 28.0724 17.1419 29.2276C17.1787 29.4903 17.2722 29.7631 17.3622 30.0134C17.4522 30.2637 17.3814 30.4265 17.1536 30.5245C16.2836 30.8873 15.4277 31.2527 14.5542 31.5929C14.1788 31.7449 13.608 31.2691 13.6135 30.8385C13.6418 29.3878 13.6418 27.9321 13.6985 26.4866C13.7205 25.9565 13.5654 25.5263 13.2391 25.1165C13.0157 24.8349 12.731 24.7471 12.3946 24.884C12.2447 24.9521 12.0924 25.0345 11.9543 25.1194C11.5707 25.3649 11.4573 25.3445 11.1795 24.9507C11.053 24.7889 10.9466 24.6381 10.8284 24.4705ZM7.02957 30.2755C7.17563 29.8336 7.29691 29.4092 7.45835 29.0067C7.54438 28.7954 7.69536 28.5885 7.86529 28.4435C8.23584 28.1444 8.6383 27.873 9.0325 27.6074C9.20599 27.485 9.22714 27.3572 9.10891 27.1896C8.94338 26.955 8.77786 26.7204 8.6206 26.4799C8.46334 26.2395 8.46789 26.0355 8.72991 25.8632C9.06628 25.6384 9.38726 25.3743 9.73545 25.1663C9.99511 25.0082 10.0493 24.857 9.84362 24.6006C9.60602 24.3164 9.41799 23.9973 9.20518 23.6956C8.93916 23.3186 8.93916 23.3186 8.57566 23.575C6.76641 24.8515 4.97134 26.1305 3.15618 27.3986C2.5944 27.7949 2.09061 28.3261 1.28525 28.3421C2.54098 30.2798 3.85099 32.1541 5.61188 33.7731C5.6306 33.5716 5.65531 33.4663 5.6635 33.3727C5.69945 32.5818 5.72713 31.7968 5.75482 31.0117C5.77666 30.3061 6.35382 29.9491 7.02957 30.2755ZM12.4458 24.0447C12.4553 24.0757 12.4506 24.1041 12.4601 24.135C13.1225 24.0567 13.5585 24.3766 13.8637 24.9143C13.9654 25.0935 14.0775 25.0771 14.2203 24.9638C14.7124 24.5915 15.2662 24.4644 15.878 24.6477C15.9406 24.6662 16.0139 24.6648 16.0871 24.6633C15.9676 24.459 15.8435 24.283 15.7725 24.0947C15.5157 23.4852 15.6853 22.9012 16.2057 22.534C16.5032 22.3242 16.7887 22.0976 17.098 21.9045C17.3104 21.7672 17.5252 21.6157 17.7649 21.5344C18.3221 21.3421 18.8501 21.5468 19.193 22.0328C19.3703 22.2842 19.5536 22.5439 19.7132 22.7702C19.8112 22.7512 19.8336 22.7479 19.8502 22.7363C20.5994 21.9567 21.3486 21.1771 22.1061 20.3917C22.2288 20.2675 22.2192 20.1487 22.1128 19.9979C21.8208 19.6015 21.5477 19.1793 21.2474 18.7888C20.9471 18.3983 20.7012 18.0321 21.0232 17.5414C21.0444 17.5014 21.0479 17.4362 21.049 17.3852C21.0524 17.1444 20.7462 16.7454 20.6022 16.8219C20.3862 16.9367 20.1654 17.0799 20.0109 17.2642C19.9649 17.3217 20.0938 17.5571 20.1884 17.6911C20.4533 18.1192 20.3652 18.6959 19.9686 18.9757C19.2003 19.5177 18.432 20.0598 17.6637 20.6018C17.3085 20.8525 16.6093 20.7559 16.361 20.404C16.1955 20.1694 16.043 19.9883 15.7207 20.1278C15.6735 20.1486 15.5707 20.1082 15.5188 20.0695C15.234 19.8939 15.0783 20.1293 14.8848 20.2408C14.6994 20.3464 14.7303 20.5129 14.7611 20.6794C14.8217 21.0633 14.874 21.4531 14.9428 21.8313C14.9938 22.0965 14.929 22.2677 14.7059 22.4251C14.2208 22.7547 13.7476 23.1012 13.2767 23.4334C12.9994 23.6542 12.7267 23.8465 12.4458 24.0447ZM24.8015 26.7728C24.5534 26.5965 24.3596 26.4445 24.1492 26.3043C23.2288 25.6485 22.3461 24.9411 21.6049 24.0835C21.4583 23.9108 21.3672 23.7115 21.5726 23.529C21.7779 23.3465 21.9516 23.4875 22.0781 23.6493C22.8145 24.5352 23.722 25.2252 24.6567 25.8835C25.3231 26.3546 25.1885 26.3742 25.6922 25.7553C25.8574 25.551 25.8195 25.4271 25.6233 25.2894C25.1472 24.9477 24.6462 24.6234 24.1995 24.2358C23.6571 23.7651 23.1583 23.2511 22.643 22.7487C22.4799 22.5877 22.4561 22.3786 22.6366 22.2136C22.8148 22.0628 22.9814 22.1586 23.1221 22.3229C23.9602 23.3003 24.9799 24.0617 26.0327 24.7998C26.2749 24.9677 26.3811 24.8552 26.4825 24.6832C26.5922 24.5054 26.5767 24.3783 26.3582 24.2439C25.895 23.9557 25.4259 23.6592 25.0194 23.2934C24.2382 22.5896 23.4783 21.8456 22.7325 21.1043C22.5694 20.9433 22.4596 20.9455 22.318 21.0955C21.6809 21.7709 21.0379 22.4379 20.4008 23.1133C20.2781 23.2376 20.2652 23.3596 20.3881 23.4988C20.6281 23.7687 20.8597 24.0445 21.1079 24.3086C21.9992 25.2736 22.9989 26.1119 24.1072 26.8234C24.3257 26.9578 24.5371 26.9593 24.8015 26.7728ZM14.721 17.9216C13.3249 18.9067 11.9204 19.8975 10.5242 20.8826C10.4416 20.9408 10.3448 20.9966 10.2941 21.0825C10.2564 21.1343 10.2659 21.253 10.3014 21.3033C10.331 21.3452 10.4526 21.3598 10.514 21.3416C10.6061 21.3142 10.6686 21.245 10.7512 21.1867C11.8252 20.429 12.9051 19.6797 13.9791 18.922C14.2021 18.7646 14.41 18.7435 14.6427 18.8805C14.9097 19.0309 15.1744 19.1956 15.4544 19.3118C15.5772 19.3632 15.7803 19.3705 15.8795 19.3005C17.2816 18.3239 18.6777 17.3388 20.0822 16.348C20.2309 16.2431 20.2497 16.1294 20.1433 15.9786C19.9163 15.6744 19.6976 15.3644 19.4954 15.0427C19.3381 14.8023 19.1964 14.7768 18.9568 14.9458C17.5441 15.9425 16.1255 16.9308 14.721 17.9216ZM16.5321 30.0469C16.5438 29.9759 16.5603 29.8764 16.5543 29.7802C16.5471 29.6473 16.4891 29.5125 16.4819 29.3795C16.331 28.2185 16.1942 27.06 16.0574 25.9016C15.9884 25.3478 15.7427 25.1573 15.1936 25.256C14.706 25.3365 14.3248 25.6556 14.3169 26.0127C14.2804 27.5569 14.2639 29.1121 14.2357 30.6505C14.23 30.9055 14.3611 30.9511 14.5536 30.8906C14.746 30.8301 14.9207 30.7445 15.1013 30.6673C15.5452 30.4545 16.015 30.2611 16.5321 30.0469ZM25.028 12.3441C23.8796 13.1543 22.723 13.9703 21.5747 14.7804C21.4838 14.8446 21.3446 14.9804 21.36 15.0198C21.483 15.2467 21.6284 15.4704 21.8092 15.6566C21.853 15.701 22.0891 15.5972 22.2047 15.5156C24.0281 14.2417 25.8397 12.951 27.649 11.6746C28.1034 11.354 28.5436 11.0309 29.0039 10.7187C29.2104 10.573 29.2504 10.4192 29.0861 10.2214C29.0365 10.1686 28.9892 10.1016 28.956 10.0371C28.8177 9.77079 28.6594 9.75694 28.4116 9.9318C27.2916 10.7471 26.1598 11.5456 25.028 12.3441ZM14.5831 19.6378C14.3763 19.4324 14.2252 19.5515 14.0848 19.6506C13.0462 20.3708 12.0017 21.0826 10.9832 21.8137C10.7767 21.9594 10.5914 22.1529 10.4464 22.3682C10.3791 22.4658 10.3805 22.6782 10.4491 22.7929C10.6608 23.1456 10.922 23.4632 11.1561 23.8126C11.2803 23.9886 11.3936 24.009 11.5671 23.8866C12.4121 23.2778 13.2749 22.6943 14.114 22.0772C14.2131 22.0072 14.2744 21.8134 14.2589 21.6863C14.2208 21.299 14.1603 20.9151 14.0855 20.5285C14.0191 20.224 14.0792 19.9934 14.3672 19.8404C14.4392 19.8021 14.4982 19.7103 14.5831 19.6378ZM24.606 11.8512C25.7295 11.0585 26.8531 10.2658 27.9766 9.47314C28.0757 9.4032 28.2362 9.22725 28.2126 9.19373C28.1381 9.0706 28.0092 8.92306 27.8817 8.9001C27.734 8.86622 27.5298 8.90993 27.4058 8.99736C26.2705 9.77329 25.1528 10.5744 24.0293 11.367C22.947 12.1306 21.8589 12.8857 20.7825 13.6577C20.6917 13.7218 20.5772 13.8402 20.5832 13.9364C20.6036 14.2985 20.9521 14.4416 21.2412 14.2376C22.3589 13.4366 23.4824 12.6439 24.606 11.8512ZM25.9348 13.6997C24.7865 14.5098 23.6299 15.3258 22.4816 16.136C22.242 16.305 22.2244 16.4555 22.4347 16.5958C22.521 16.6478 22.7111 16.6016 22.8078 16.5459C23.9125 15.779 25.0054 14.9954 26.1041 14.2202C27.2548 13.3959 28.4197 12.574 29.5704 11.7497C29.7439 11.6273 29.8429 11.4695 29.701 11.2684C29.5533 11.059 29.4188 11.2542 29.3114 11.33C28.1843 12.1001 27.0584 12.907 25.9348 13.6997ZM29.9089 8.42364C29.6858 8.58101 29.4687 8.74676 29.248 8.88993C29.0933 8.98646 29.0686 9.09174 29.1809 9.25094C29.3725 9.50486 29.5557 9.76461 29.7307 10.0302C29.843 10.1894 29.96 10.2324 30.1252 10.1158C30.5713 9.80106 31.0092 9.49215 31.4612 9.18578C31.6264 9.06921 31.6251 8.94462 31.5128 8.78542C31.3213 8.5315 31.138 8.27176 30.9631 8.00618C30.8472 7.82439 30.735 7.84078 30.578 7.95153C30.3526 8.1231 30.1319 8.26627 29.9089 8.42364ZM17.9656 18.6445C17.6021 18.9009 17.2244 19.1548 16.8727 19.428C16.7818 19.4922 16.6556 19.6816 16.6852 19.7235C16.7715 19.8634 16.9086 20.0051 17.0598 20.0616C17.1709 20.0962 17.3432 20.0248 17.4648 19.9516C18.1068 19.5111 18.7512 19.0565 19.3873 18.6077C19.4782 18.5436 19.5596 18.4485 19.6186 18.3567C19.7719 18.1356 19.6005 17.9804 19.48 17.827C19.3417 17.6485 19.2166 17.7869 19.1009 17.8685C18.7174 18.1141 18.3373 18.3822 17.9656 18.6445ZM17.8126 23.584C17.8198 23.6291 17.821 23.6659 17.8281 23.7111C18.1668 23.4721 18.5197 23.2357 18.8466 22.98C18.8879 22.9508 18.9114 22.8088 18.8759 22.7585C18.74 22.5658 18.6004 22.3505 18.4185 22.2153C18.3003 22.1355 18.0748 22.1315 17.9331 22.1938C17.6911 22.2892 17.4822 22.4492 17.2757 22.5949C16.9039 22.8572 16.9324 23.0379 17.3565 23.2532C17.5113 23.3322 17.6567 23.4681 17.8126 23.584ZM29.1875 5.77009C29.1568 5.7792 29.1261 5.78831 29.0812 5.79486C29.0334 6.56899 29.053 7.33328 29.1186 8.12782C29.4869 7.93074 29.7866 7.7067 30.09 7.50525C30.2776 7.3854 30.2704 7.25243 30.1522 7.08486C29.9016 6.74715 29.6674 6.39778 29.4192 6.04587C29.3541 5.9537 29.2667 5.86481 29.1875 5.77009ZM35.367 5.60191C34.9974 5.6744 31.9478 7.87615 31.8677 8.09581C32.1724 8.10675 35.2893 5.89517 35.367 5.60191ZM20.0523 14.4992C20.0334 14.525 20.0086 14.5425 19.9898 14.5684C20.0028 14.6219 20.0135 14.6897 20.043 14.7316C20.4486 15.324 20.8624 15.9105 21.2785 16.4828C21.314 16.5331 21.4073 16.5425 21.4817 16.5779C21.4816 16.4901 21.5064 16.3848 21.4709 16.3345C21.0772 15.7589 20.6752 15.1892 20.2709 14.6336C20.2153 14.5724 20.1244 14.5487 20.0523 14.4992ZM17.3383 23.9814C17.018 23.7555 16.6978 23.5297 16.3835 23.3122C16.2469 23.6972 16.3688 24.063 16.7008 24.2178C16.9642 24.3457 17.1755 24.2593 17.3383 23.9814ZM11.4465 19.4538C11.0094 19.2727 10.6834 19.2141 10.2644 19.4093C10.3885 19.5853 10.4808 19.7336 10.5978 19.8643C10.6415 19.9088 10.7608 19.9376 10.8104 19.9026C11.0063 19.7769 11.1904 19.6345 11.4465 19.4538ZM10.3036 23.9372C10.3284 23.9197 10.3532 23.9022 10.3721 23.8763C10.242 23.692 10.106 23.4993 9.97598 23.315C9.9512 23.3324 9.92641 23.3499 9.90163 23.3674C10.0376 23.5601 10.1676 23.7445 10.3036 23.9372Z" fill="#F0680C"/>
<path d="M6.4773 26.5112C6.06423 26.8026 5.6429 27.0999 5.22983 27.3913C5.0233 27.537 4.79069 27.5756 4.64291 27.3661C4.48686 27.1625 4.59532 26.9479 4.80186 26.8022C5.64452 26.2077 6.48718 25.6132 7.32984 25.0187C7.51985 24.8846 7.7182 24.8325 7.87781 25.0588C8.04924 25.3017 7.93366 25.4711 7.72712 25.6169C7.31171 25.9225 6.89864 26.2139 6.4773 26.5112Z" fill="#F0680C"/>
<path d="M3.44767 28.636C3.30722 28.7351 3.1739 28.8793 3.01216 28.9307C2.88112 28.9729 2.6827 28.9372 2.5728 28.8516C2.39674 28.7249 2.44851 28.5001 2.59131 28.3868C2.88751 28.1402 3.20144 27.9187 3.53311 27.7223C3.68772 27.6258 3.91684 27.6524 3.97724 27.8608C4.02105 27.993 3.97397 28.1894 3.89022 28.2987C3.78525 28.448 3.60463 28.5252 3.44767 28.636Z" fill="#F0680C"/>
</g>
<defs>
<clipPath id="clip0">
<rect width="40" height="40" fill="white"/>
</clipPath>
</defs>
</svg>
