<svg width="40" height="40" viewBox="0 0 40 40" fill="none" xmlns="http://www.w3.org/2000/svg">
<path d="M22.9888 17.333L17.0404 22.6784C17.0399 22.6788 17.0394 22.6793 17.0389 22.6797L14.6674 24.8109C14.6037 24.8682 14.5572 24.9422 14.5335 25.0245L13.6418 28.106C13.6036 28.238 13.4913 28.3384 13.3559 28.3618L12.4692 28.5149C12.2708 28.5492 12.0934 28.6654 11.9828 28.8336L8.19806 34.5864C8.19648 34.5888 8.19491 34.5912 8.1934 34.5936C8.12282 34.7055 8.00662 34.7735 7.87463 34.7804C7.74252 34.787 7.62003 34.7315 7.53825 34.6275L4.91891 31.2965C4.78522 31.1265 4.80938 30.8833 4.97528 30.7417L7.09706 28.9155C7.28894 28.7503 7.31064 28.4608 7.1455 28.2689C6.98036 28.0771 6.69085 28.0553 6.49897 28.2205L4.37857 30.0455C3.83848 30.5066 3.75921 31.3051 4.1982 31.8632L6.81755 35.1942C7.06793 35.5127 7.45137 35.6977 7.85412 35.6977C7.87671 35.6977 7.89936 35.6972 7.922 35.696C8.34753 35.6739 8.73751 35.4465 8.96619 35.0872L12.7047 29.4047L13.512 29.2653C13.9909 29.1826 14.3876 28.8276 14.5227 28.3608L14.9371 26.9288L15.9608 26.6395C17.3719 26.2407 18.2212 24.8086 17.8945 23.3791L17.8499 23.1839L23.6018 18.0149C23.7901 17.8457 23.8056 17.5558 23.6364 17.3675C23.4669 17.1792 23.1771 17.1638 22.9888 17.333ZM15.7113 25.7572L15.2372 25.8912L15.3778 25.4053L17.0445 23.9076C17.0842 24.7446 16.5451 25.5215 15.7113 25.7572Z" fill="#F0680E"/>
<path d="M35.859 5.80841L34.6093 4.22238C34.4837 4.06303 34.2953 3.97168 34.0924 3.97168C33.9454 3.97168 33.8008 4.02182 33.6854 4.11285L30.7243 6.44589C30.5863 6.55466 30.4989 6.71061 30.4782 6.88519C30.4687 6.96465 30.4744 7.04341 30.4928 7.1189L11.916 21.7262C11.6336 21.9482 11.4563 22.2672 11.4168 22.6243C11.3773 22.9813 11.4804 23.3313 11.7074 23.6098L12.0445 24.0235L11.9362 24.3238C11.9135 24.3869 11.8634 24.4692 11.7543 24.5024C11.7394 24.507 11.7246 24.5123 11.7102 24.5184L9.75078 25.3433C9.70674 25.3619 9.66585 25.3872 9.62961 25.4184L7.80797 26.9862C7.61603 27.1514 7.59439 27.4409 7.75953 27.6328C7.85019 27.7381 7.97833 27.7922 8.10724 27.7921C8.21312 27.7921 8.31956 27.7556 8.40606 27.6811L10.173 26.1603L12.0467 25.3714C12.3977 25.2561 12.671 24.9889 12.7987 24.6347L12.9969 24.0848C12.9969 24.0847 12.997 24.0847 12.997 24.0847L13.1035 23.7892C13.1853 23.5623 13.3287 23.3635 13.5184 23.2142L25.8635 13.5024C26.1339 13.8937 26.0778 14.4363 25.7284 14.7587L24.2735 16.066C24.0853 16.2353 24.0698 16.5252 24.239 16.7134C24.4082 16.9017 24.698 16.9172 24.8864 16.748L26.3456 15.4367C26.9385 14.8899 27.1021 14.0308 26.8008 13.3158L32.1068 9.14638C32.1916 9.18526 32.2846 9.20653 32.3812 9.20653C32.5282 9.20653 32.6727 9.15639 32.7882 9.06536L35.7493 6.73226C36.0344 6.50779 36.0835 6.09327 35.859 5.80841ZM26.1983 12.6234C26.187 12.6188 26.1752 12.6153 26.1637 12.6112C26.1538 12.6077 26.1441 12.604 26.1341 12.6009C26.1169 12.5955 26.0995 12.591 26.0819 12.5867C26.0724 12.5844 26.0631 12.5817 26.0535 12.5797C26.0361 12.5761 26.0185 12.5734 26.0008 12.5708C25.9928 12.5696 25.9849 12.5677 25.9767 12.5667C25.9741 12.5664 25.9716 12.5665 25.969 12.5661C25.9541 12.5645 25.9392 12.5638 25.9242 12.563C25.9101 12.5622 25.8961 12.5611 25.882 12.561C25.8795 12.561 25.8771 12.5606 25.8746 12.5606C25.862 12.5606 25.8494 12.5616 25.8368 12.5622C25.7814 12.5645 25.7267 12.5722 25.6733 12.5851C25.669 12.5862 25.6646 12.587 25.6603 12.5881C25.642 12.5928 25.6239 12.5985 25.6059 12.6044C25.5998 12.6065 25.5937 12.6084 25.5876 12.6106C25.5711 12.6165 25.5547 12.6229 25.5386 12.6299C25.5305 12.6333 25.5226 12.6369 25.5147 12.6406C25.5005 12.6472 25.4864 12.6539 25.4726 12.6613C25.4612 12.6674 25.4502 12.674 25.4391 12.6804C25.4286 12.6866 25.4181 12.6925 25.4079 12.6991C25.3862 12.7132 25.365 12.7281 25.3446 12.7442L12.9515 22.4937C12.9153 22.5222 12.8804 22.5521 12.8462 22.5827C12.8389 22.5892 12.8316 22.5956 12.8244 22.6022C12.7915 22.6324 12.7594 22.6635 12.7285 22.6955C12.7232 22.701 12.7181 22.7067 12.7129 22.7122C12.6846 22.742 12.6573 22.7726 12.6308 22.8039C12.6263 22.8094 12.6216 22.8146 12.6171 22.82C12.5887 22.8543 12.5615 22.8895 12.5353 22.9255C12.5295 22.9334 12.5238 22.9414 12.5181 22.9494C12.4922 22.9859 12.4669 23.023 12.4432 23.0611L12.4182 23.0304C12.348 22.9441 12.316 22.8357 12.3282 22.7251C12.3405 22.6145 12.3954 22.5156 12.4829 22.4468L31.0135 7.87591L31.4824 8.4711L26.1983 12.6234ZM32.4243 8.18499L31.8104 7.40578L31.4952 7.00585L34.0494 4.99335L34.9785 6.17248L32.4243 8.18499Z" fill="#F0680E"/>
</svg>
