<svg width="40" height="40" viewBox="0 0 40 40" fill="none" xmlns="http://www.w3.org/2000/svg">
<path d="M15.3784 24.0099C15.1777 23.8948 15.0113 23.8334 14.8769 23.7149C14.7139 23.58 14.5745 23.4097 14.4429 23.2325C14.3805 23.1477 14.3209 23.0043 14.3536 22.9326C14.4748 22.6969 14.3418 22.549 14.2018 22.3934C13.7811 21.9412 13.3757 21.4752 12.9557 21.0083C12.6967 20.7204 12.7027 20.5883 12.972 20.3319C13.579 19.7717 13.579 19.7717 14.1244 20.3933C14.3344 20.6268 14.5374 20.8524 14.7474 21.0859C14.9295 21.2882 14.9787 21.4973 14.7562 21.6975C14.6487 21.7942 14.5853 21.8935 14.7113 22.0336C14.8233 22.1581 14.9157 22.2298 15.1042 22.1306C15.2473 22.0582 15.4464 22.048 15.6225 22.0585C15.8643 22.0803 16.0851 22.0787 16.2637 21.8759C16.3802 21.7429 16.5176 21.6333 16.6474 21.5306C16.8156 21.3934 16.9538 21.2691 16.7814 21.0158C16.7331 20.9467 16.7852 20.7731 16.848 20.6885C17.2558 20.1385 17.6777 19.604 18.0996 19.0696C18.3025 18.8167 18.5527 18.8169 18.769 19.0728C19.0273 19.3754 19.0344 19.3831 19.3337 19.1138C19.986 18.5269 20.6384 17.94 21.2831 17.3599C21.6131 17.063 21.7019 17.0536 22.0106 17.3813C22.1863 17.5611 22.293 17.4791 22.4235 17.3618C23.1756 16.6851 23.9201 16.0153 24.6723 15.3386C26.2917 13.8816 27.9041 12.4168 29.5305 10.9676C29.8605 10.6707 30.1179 10.3547 30.1611 9.89344C30.2134 9.39586 30.4804 9.02891 30.8635 8.69835C31.8285 7.87237 32.7662 7.00057 33.7102 6.15125C34.094 5.80599 34.094 5.80599 33.7369 5.40916C33.3939 5.02788 33.0439 4.63882 32.7008 4.25755C32.5538 4.09414 32.4298 3.91002 32.6441 3.73137C32.8429 3.56652 33.029 3.68071 33.176 3.84412C33.5611 4.27208 33.9461 4.70004 34.3381 5.13579C34.4781 5.29141 34.5922 5.37185 34.791 5.207C34.9976 5.03525 35.1837 5.14944 35.344 5.3431C35.5743 5.61456 35.8194 5.8869 36.0497 6.15836C36.1757 6.29842 36.2841 6.34171 36.4306 6.19583C36.6308 6.00161 36.8119 6.06396 36.9799 6.25071C37.687 7.0366 38.387 7.81472 39.0941 8.60061C39.3111 8.84183 39.2987 8.95154 39.0301 9.19322C36.8734 11.1335 34.7168 13.0739 32.5601 15.0142C27.249 19.7925 21.9303 24.5777 16.6192 29.3561C13.2499 32.3874 9.88061 35.4187 6.5113 38.4501C6.18896 38.7401 6.06388 38.74 5.76985 38.4132C5.09779 37.6662 4.43273 36.927 3.76067 36.18C3.50865 35.8998 3.52172 35.7755 3.78967 35.5485C4.37929 35.0461 4.3012 35.1446 3.84683 34.6241C3.24545 33.9402 3.24545 33.9402 3.89782 33.3533C4.04365 33.2221 4.18247 33.0831 4.32762 32.9666C4.47277 32.8501 4.46282 32.7464 4.3368 32.6064C4.09811 32.3565 3.88176 32.1006 3.65074 31.8438C3.4274 31.5801 3.42782 31.4108 3.67341 31.1898C4.30276 30.6236 4.93211 30.0574 5.56145 29.4912C5.83775 29.2426 6.04886 29.292 6.29186 29.6084C6.47886 29.8626 6.71122 30.09 6.92824 30.3312C6.94924 30.3545 6.97725 30.3857 6.99892 30.3943C7.30711 30.4127 7.632 30.3879 7.86167 30.6741C7.86867 30.6819 8.06484 30.5758 8.14927 30.4998C9.75334 29.0566 11.3574 27.6135 12.9615 26.1703C13.6906 25.5143 14.412 24.8653 15.1412 24.2093C15.2403 24.1342 15.3324 24.0513 15.3784 24.0099ZM15.8403 22.7636C15.4474 22.6666 15.1989 22.7916 15.1994 23.1009C15.4179 22.9888 15.6295 22.8689 15.8403 22.7636C16.2108 22.8668 16.575 22.9474 16.8307 23.3087C17.0583 23.6389 17.096 23.6191 17.403 23.3429C17.4798 23.2739 17.5565 23.2048 17.6333 23.1357C23.4816 17.8741 29.3376 12.6055 35.1859 7.34382C35.8383 6.75689 35.8749 6.92107 35.2168 6.18964C35.0208 5.97177 34.8817 5.9561 34.6592 6.15635C33.607 7.11703 32.5619 8.0855 31.4817 9.01505C31.0679 9.37324 30.7919 9.77647 30.7299 10.325C30.6817 10.7345 30.4614 11.0453 30.1544 11.3215C28.1135 13.1436 26.079 14.9881 24.0451 16.818C23.5309 17.2806 23.0167 17.7432 22.4955 18.1981C22.3343 18.3431 22.1681 18.4363 21.9561 18.2469C21.6174 17.9321 21.6097 17.9391 21.272 18.2429C19.7063 19.6515 18.1406 21.0601 16.5819 22.4766C16.36 22.6621 16.1402 22.8036 15.8403 22.7636ZM28.7913 13.9277C26.7651 15.7507 24.7312 17.5805 22.698 19.3957C22.4831 19.589 22.4624 19.7203 22.6731 19.9391C23.1224 20.4077 23.5565 20.8901 23.9752 21.3864C24.1635 21.6111 24.3026 21.6268 24.5252 21.4265C28.5705 17.7729 32.6152 14.1339 36.6746 10.4958C36.8895 10.3025 36.8809 10.1694 36.6842 9.96622C36.2495 9.49848 35.8302 9.01692 35.4031 8.54227C35.1231 8.23103 35.1231 8.23103 34.8084 8.51414C32.8053 10.3164 30.8021 12.1186 28.7913 13.9277ZM10.6865 33.8911C12.0987 32.6206 13.5186 31.3431 14.9308 30.0726C15.0766 29.9414 15.1624 29.8361 14.9944 29.6493C14.4967 29.1115 14.0066 28.5669 13.5243 28.0153C13.3982 27.8752 13.3102 27.87 13.172 27.9942C11.7982 29.2303 10.4167 30.4732 9.04291 31.7092C8.90476 31.8335 8.90004 31.9363 9.02605 32.0763C9.18774 32.2406 9.32708 32.4109 9.48109 32.5821C9.84512 32.9867 9.8404 33.0895 9.44898 33.4417C8.99616 33.8491 8.54333 34.2565 8.09051 34.6639C7.43047 35.2577 6.77042 35.8516 6.11805 36.4385C5.84942 36.6802 5.70267 36.6714 5.47165 36.4146C5.29663 36.2201 5.12862 36.0334 4.9536 35.8388C4.84159 35.7143 4.74493 35.576 4.56006 35.7564C4.39054 35.923 4.45919 36.0302 4.5852 36.1703C5.01924 36.6527 5.45328 37.1351 5.88732 37.6176C6.17434 37.9366 6.21069 37.9461 6.52537 37.663C7.90053 36.3976 9.2897 35.1478 10.6865 33.8911ZM16.6341 24.8654C16.0278 25.4109 15.4285 25.9642 14.8152 26.5019C14.631 26.6676 14.6332 26.7782 14.8019 26.9502C15.2716 27.4569 15.7337 27.9704 16.188 28.4909C16.3421 28.6621 16.4581 28.6985 16.6423 28.5328C17.8403 27.4409 19.0376 26.3637 20.2495 25.2874C20.4261 25.1285 20.4245 25.0033 20.2634 24.8243C19.7937 24.3177 19.3317 23.8041 18.885 23.2767C18.724 23.0978 18.5989 23.0977 18.4301 23.2496C17.8384 23.796 17.2328 24.3268 16.6341 24.8654ZM7.3962 34.4016C7.826 34.0149 8.24879 33.6204 8.69259 33.2493C8.92217 33.0568 8.95126 32.9039 8.72589 32.6843C8.32483 32.2848 7.93145 31.8785 7.57644 31.4376C7.3881 31.2128 7.25467 31.2343 7.07815 31.3931C6.18018 32.201 5.28221 33.0089 4.38424 33.8168C4.23074 33.9549 4.20932 34.1009 4.35633 34.2643C4.77004 34.7087 5.17608 35.16 5.57444 35.6182C5.74245 35.8049 5.86821 35.7903 6.03706 35.6384C6.48288 35.2233 6.9357 34.8159 7.3962 34.4016ZM22.3678 23.3816C22.7593 23.0294 23.1514 22.6626 23.5498 22.3182C23.741 22.1602 23.747 22.0281 23.579 21.8413C23.1093 21.3347 22.6473 20.8211 22.1929 20.3006C22.0319 20.1217 21.9222 20.1078 21.7456 20.2666C20.9544 20.9925 20.1639 21.7037 19.3587 22.4141C19.1976 22.5591 19.1705 22.6679 19.3392 22.84C19.8159 23.3544 20.2849 23.8757 20.7463 24.404C20.9213 24.5985 21.0471 24.5839 21.2236 24.4251C21.5933 24.0643 21.9841 23.7268 22.3678 23.3816ZM36.4937 8.82827C36.7387 9.10061 36.9907 9.38073 37.2357 9.65307C37.3547 9.78535 37.4568 9.80617 37.5949 9.68188C37.8182 9.46695 38.0408 9.2667 38.278 9.06733C38.4315 8.92922 38.4299 8.80395 38.2899 8.64833C37.8069 8.11143 37.3238 7.57453 36.8408 7.03763C36.7148 6.89757 36.612 6.89144 36.4739 7.01573C36.236 7.22979 36.0127 7.44472 35.7678 7.651C35.6073 7.78132 35.6242 7.89278 35.7579 8.02594C36.0183 8.28447 36.2486 8.55593 36.4937 8.82827ZM16.5712 23.9928C16.5432 23.9616 16.5075 23.9374 16.4795 23.9063C16.3804 23.9814 16.2673 24.0409 16.1752 24.1237C13.6501 26.3955 11.1174 28.6742 8.59233 30.946C8.53093 31.0012 8.46253 31.0487 8.41513 31.1195C8.38376 31.1618 8.39574 31.2214 8.39304 31.2801C8.45174 31.2836 8.51677 31.3096 8.56215 31.2829C8.64522 31.2363 8.7073 31.1664 8.77637 31.1042C9.72039 30.2549 10.6721 29.3987 11.6161 28.5493C13.1971 27.1269 14.7782 25.7044 16.3592 24.282C16.429 24.2052 16.4931 24.0912 16.5712 23.9928ZM5.79986 31.6702C6.01476 31.4769 6.21499 31.2827 6.43689 31.0971C6.60506 30.9599 6.57478 30.8182 6.42507 30.7135C6.18233 30.5517 6.14453 30.093 5.71152 30.2291C5.65914 30.2481 5.61242 30.3042 5.56637 30.3456C5.32077 30.5666 5.0675 30.7945 4.8219 31.0154C4.2079 31.5678 4.14692 31.4537 4.81965 32.186C4.93866 32.3183 5.05607 32.3253 5.18654 32.2079C5.39309 32.0362 5.59264 31.8567 5.79986 31.6702ZM14.6918 28.3869C14.9368 28.6592 15.1889 28.9393 15.4339 29.2117C15.5389 29.3284 15.6739 29.4322 15.7917 29.2698C15.8391 29.199 15.8186 29.0064 15.7555 28.9363C15.2879 28.3856 14.7971 27.8556 14.3141 27.3187C14.2161 27.2098 14.1161 27.1449 13.9779 27.2692C13.8398 27.3935 13.8937 27.4998 13.9917 27.6088C14.2228 27.8655 14.4538 28.1223 14.6918 28.3869Z" fill="#F0680C"/>
<path d="M26.8101 17.1744C25.9044 17.9892 24.9988 18.804 24.0855 19.6257C24.0087 19.6948 23.9306 19.7932 23.8419 19.8026C23.7161 19.8172 23.5477 19.7998 23.4707 19.7142C23.407 19.6588 23.4298 19.4835 23.4575 19.36C23.4679 19.2943 23.5516 19.233 23.613 19.1778C25.4704 17.5068 27.3354 15.8288 29.1927 14.1578C29.3462 14.0197 29.5291 13.8833 29.7258 14.0865C29.9365 14.3053 29.781 14.4874 29.6198 14.6325C28.6828 15.4896 27.7394 16.3242 26.8101 17.1744Z" fill="#F0680C"/>
<path d="M31.5462 12.8994C31.385 13.0444 31.2385 13.1903 31.0703 13.3275C30.9175 13.4509 30.7177 13.4758 30.6154 13.3004C30.5614 13.194 30.5722 12.9591 30.6643 12.8762C30.958 12.5698 31.2803 12.2797 31.616 12.02C31.7151 11.9449 31.9506 11.9442 32.0429 12.016C32.2067 12.1362 32.1609 12.3323 32.022 12.4713C31.8755 12.6172 31.7074 12.7544 31.5462 12.8994Z" fill="#F0680C"/>
</svg>
