<svg width="40" height="40" viewBox="0 0 40 40" fill="none" xmlns="http://www.w3.org/2000/svg">
<path d="M34.8049 17.9389L28.0083 12.6227L28.7512 11.8798C28.8557 11.7753 28.9096 11.6303 28.8986 11.4828L28.7876 9.99074L33.334 5.4443C33.5324 5.24585 33.5324 4.92419 33.334 4.72574C33.1355 4.52729 32.8138 4.52729 32.6154 4.72574L30.8668 6.47433L29.8847 5.4922C29.6863 5.29375 29.3645 5.29375 29.1661 5.4922C28.9677 5.69065 28.9677 6.01237 29.1661 6.21076L30.1483 7.19289L21.8561 15.485C21.8251 15.4862 21.794 15.4893 21.7632 15.4964L19.5275 16.0073C19.4344 16.0286 19.3491 16.0758 19.2815 16.1433L14.8421 20.5827L14.5147 20.2553C14.3163 20.0569 13.9945 20.0569 13.7961 20.2553C13.5977 20.4538 13.5977 20.7755 13.7961 20.9739L14.1235 21.3013L10.9457 24.4791C10.7473 24.6775 10.7473 24.9993 10.9457 25.1977L11.5526 25.8045L5.14885 32.2082C5.04222 32.3149 4.98842 32.4634 5.00209 32.6135C5.01577 32.7636 5.09542 32.9 5.21952 32.9857L8.62086 35.3331C8.70839 35.3935 8.80913 35.423 8.90932 35.423C9.04041 35.423 9.17048 35.3725 9.26881 35.2742L12.5025 32.0405C12.6369 31.906 12.6851 31.7077 12.6272 31.5266L11.8671 29.1468L13.8258 27.188L15.2584 29.4611C15.3344 29.5815 15.4574 29.6646 15.5975 29.69C15.6277 29.6955 15.6581 29.6982 15.6883 29.6982C15.7984 29.6982 15.9064 29.6625 15.9954 29.5949L17.3847 28.541C17.6082 28.3714 17.652 28.0529 17.4826 27.8293C17.1639 27.4087 16.8489 26.9243 16.5951 26.4628L17.5396 25.5182C18.0641 24.9938 18.0641 24.1404 17.5396 23.6159L17.4688 23.5451L18.0197 22.9941L21.5329 26.5073C21.6321 26.6065 21.7622 26.6562 21.8922 26.6562C22.0222 26.6562 22.1523 26.6066 22.2515 26.5073L24.4792 24.2796C24.6777 24.0812 24.6777 23.7595 24.4792 23.5611L20.966 20.0479L23.4491 17.5647C23.5869 17.427 23.6288 17.2298 23.5753 17.0557L27.1144 13.5165L29.3727 17.7404C29.505 17.9879 29.813 18.0811 30.0603 17.9489C30.3078 17.8166 30.4012 17.5087 30.2688 17.2613L28.817 14.5457L34.1786 18.7394C34.2715 18.8121 34.3819 18.8473 34.4913 18.8473C34.6422 18.8473 34.7917 18.7803 34.8919 18.6522C35.065 18.4312 35.026 18.1118 34.8049 17.9389ZM10.9296 28.6472C10.7951 28.7817 10.747 28.98 10.8049 29.1611L11.565 31.5409L8.84967 34.2562L6.29866 32.4957L12.2631 26.5313L12.6543 26.9225L10.9296 28.6472ZM15.8228 28.4503L14.5628 26.4512L15.1919 25.822C15.3151 26.1898 15.5083 26.6044 15.774 27.0704C15.9872 27.4444 16.208 27.7824 16.3775 28.0295L15.8228 28.4503ZM16.8212 24.7997L16.1442 25.4767C16.078 25.2783 16.0418 25.1055 16.0435 24.9705L16.7503 24.2638L16.8211 24.3346C16.8832 24.3967 16.9174 24.4793 16.9174 24.5672C16.9175 24.655 16.8833 24.7376 16.8212 24.7997ZM16.1914 23.3854L15.856 23.05L20.4391 18.4669L20.7745 18.8023L16.1914 23.3854ZM18.7385 22.2756L20.2475 20.7665L20.9341 21.4532L19.4251 22.9622L18.7385 22.2756ZM21.6528 22.1718L23.4015 23.9204L21.8924 25.4294L20.1437 23.6808L21.6528 22.1718ZM21.4931 18.0836L20.7985 17.389C20.7032 17.2937 20.5739 17.2401 20.4392 17.2401C20.3044 17.2401 20.1752 17.2936 20.0798 17.389L14.7781 22.6907C14.5796 22.8892 14.5796 23.2109 14.7781 23.4093L15.4727 24.1039L13.3808 26.1959L12.0234 24.8385L19.8966 16.9654L21.7158 16.5496L22.3714 17.2053L21.4931 18.0836ZM22.8985 16.2953L22.6907 16.0875L27.839 10.9392L27.8678 11.326L22.8985 16.2953Z" fill="#F0680E"/>
</svg>
