<svg width="40" height="40" viewBox="0 0 40 40" fill="none" xmlns="http://www.w3.org/2000/svg">
<path d="M11.9613 19.59L11.5853 17.8358C11.5338 17.5957 11.2975 17.4428 11.0572 17.4942C10.817 17.5457 10.664 17.7821 10.7155 18.0223L11.0916 19.7764C11.1363 19.9852 11.3208 20.1281 11.526 20.1281C11.5569 20.1281 11.5882 20.1248 11.6196 20.1181C11.8598 20.0666 12.0128 19.8302 11.9613 19.59Z" fill="#F0680C"/>
<path d="M13.4195 18.7194L13.0435 16.9652C12.992 16.7251 12.7557 16.5722 12.5153 16.6236C12.2752 16.6751 12.1222 16.9115 12.1737 17.1517L12.5498 18.9058C12.5945 19.1146 12.779 19.2574 12.9842 19.2574C13.0151 19.2574 13.0464 19.2542 13.0778 19.2475C13.318 19.196 13.471 18.9596 13.4195 18.7194Z" fill="#F0680C"/>
<path d="M14.8775 17.8485L14.5015 16.0944C14.45 15.8542 14.2137 15.7014 13.9735 15.7527C13.7333 15.8042 13.5803 16.0406 13.6318 16.2808L14.0078 18.0349C14.0525 18.2436 14.237 18.3865 14.4422 18.3865C14.4731 18.3865 14.5044 18.3832 14.5359 18.3765C14.7761 18.325 14.929 18.0886 14.8775 17.8485Z" fill="#F0680C"/>
<path d="M16.3355 16.9777L15.9595 15.2235C15.908 14.9834 15.6717 14.8305 15.4314 14.8819C15.1913 14.9334 15.0383 15.1698 15.0898 15.41L15.4659 17.1641C15.5106 17.3728 15.6951 17.5157 15.9003 17.5157C15.9312 17.5157 15.9625 17.5125 15.9939 17.5058C16.2341 17.4543 16.387 17.2179 16.3355 16.9777Z" fill="#F0680C"/>
<path d="M32.9371 8.46935L31.0783 5.3571C30.7712 4.84273 30.1028 4.67412 29.5883 4.98135L7.97992 17.8861C7.51913 18.1613 7.19305 18.5994 7.06183 19.1199C6.93056 19.6403 7.00985 20.1807 7.28509 20.6415L8.63446 22.9009C8.64791 22.9236 8.66225 22.9453 8.67677 22.967L8.68418 22.9781C8.68424 22.9782 8.68424 22.9782 8.6843 22.9783C8.6843 22.9783 8.6843 22.9783 8.68436 22.9783C9.08713 23.5844 9.80005 23.9093 10.5454 23.8269C11.0671 23.7696 11.5594 24.1088 11.6904 24.6172L14.103 33.9737C14.2293 34.4634 14.5696 34.8553 15.0366 35.049C15.2353 35.1314 15.4431 35.1723 15.6499 35.1723C15.9293 35.1723 16.2068 35.0976 16.4573 34.9502L20.7325 32.4333C21.3423 32.0743 21.6447 31.3451 21.468 30.6601L20.2788 26.0484C20.0674 25.2281 20.4262 24.3613 21.1508 23.9409C21.1637 23.9333 21.1765 23.9258 21.1893 23.9182L25.2497 21.4932C26.6132 20.679 27.06 18.9072 26.2457 17.5438L25.3408 16.0285C25.3295 16.0096 25.3307 15.9917 25.3337 15.98C25.3366 15.9683 25.3441 15.9519 25.363 15.9406L31.9973 11.9784C32.5596 11.6426 32.7439 10.912 32.4081 10.3496L31.9475 9.57834L32.7833 9.0792C32.8845 9.01875 32.9577 8.92049 32.9865 8.8061C33.0154 8.69172 32.9975 8.57064 32.9371 8.46935ZM27.8198 11.5255C27.9457 11.7363 28.2188 11.8053 28.4297 11.6793L31.1838 10.0345L31.6444 10.8056C31.7288 10.9469 31.6825 11.1305 31.5413 11.2148L24.9069 15.1769C24.6882 15.3075 24.5334 15.5155 24.4712 15.7625C24.4089 16.0095 24.4465 16.266 24.5771 16.4846L25.4819 17.9999C25.7546 18.4564 25.8332 18.9917 25.7031 19.5073C25.5731 20.0229 25.2501 20.457 24.7936 20.7296L20.7331 23.1546L20.705 23.1711C19.6363 23.7912 19.1069 25.0656 19.4175 26.2705L20.6066 30.8822C20.6848 31.1853 20.5509 31.5079 20.2812 31.6668L16.006 34.1836C15.8131 34.2971 15.584 34.3131 15.3774 34.2274C15.1707 34.1416 15.0202 33.9682 14.9643 33.7516L12.5517 24.395C12.3108 23.4608 11.4065 22.8367 10.4472 22.9428C10.2095 22.969 9.97832 22.9222 9.78357 22.8149L26.6506 12.7417C26.8615 12.6157 26.9303 12.3427 26.8044 12.1318C26.6785 11.9209 26.4055 11.8522 26.1945 11.978L9.20626 22.1236L8.04873 20.1854C7.89535 19.9286 7.8512 19.6275 7.92433 19.3374C7.99747 19.0474 8.17918 18.8031 8.43604 18.6498L30.0445 5.74494C30.1378 5.68923 30.259 5.71981 30.3147 5.81316L31.9454 8.54355L27.9736 10.9156C27.7627 11.0415 27.6938 11.3145 27.8198 11.5255Z" fill="#F0680C"/>
<path d="M19.9023 30.4144L17.8513 22.471C17.7853 22.2151 17.6074 22.0108 17.3629 21.9103C17.1185 21.8097 16.8482 21.8298 16.6214 21.9653L13.5913 23.775C13.2771 23.9625 13.1215 24.341 13.2128 24.6954L15.2829 32.7235C15.3486 32.9784 15.5258 33.1825 15.7689 33.2833C15.8723 33.3262 15.9804 33.3475 16.0881 33.3475C16.2335 33.3475 16.378 33.3086 16.5083 33.2319L19.4529 31.4983C19.8256 31.2789 20.0104 30.8332 19.9023 30.4144ZM19.0017 30.7319L16.1246 32.4257L14.0851 24.5161L17.0097 22.7695L19.0411 30.6367C19.0506 30.6735 19.0344 30.7127 19.0017 30.7319Z" fill="#F0680C"/>
<path d="M24.9988 18.3363L24.0728 16.7859C23.9423 16.567 23.7344 16.4123 23.4874 16.35C23.2402 16.2877 22.9839 16.3254 22.7651 16.456L19.3655 18.4863C18.3679 19.082 17.8739 20.2839 18.164 21.409L18.258 21.7735C18.3692 22.2047 18.6692 22.5503 19.0811 22.7217C19.2543 22.7937 19.4353 22.8295 19.6153 22.8295C19.8555 22.8295 20.0938 22.7657 20.3093 22.6395L24.5527 20.1054C25.1634 19.7406 25.3635 18.947 24.9988 18.3363ZM24.0966 19.3416L19.8673 21.8673L19.8578 21.873C19.7257 21.9504 19.5671 21.9603 19.4227 21.9003C19.2708 21.8371 19.1603 21.7099 19.1194 21.5513L19.0254 21.1868C18.9323 20.8257 18.962 20.453 19.0916 20.1195L19.3668 20.3051C19.6828 20.5183 20.051 20.6256 20.4199 20.6256C20.7537 20.6256 21.088 20.5377 21.3842 20.3608L21.8258 20.0971C22.0366 19.9711 22.1054 19.6981 21.9796 19.4872C21.8536 19.2763 21.5806 19.2076 21.3697 19.3334L20.9281 19.5971C20.5994 19.7935 20.1818 19.7819 19.8643 19.5678L19.6126 19.398C19.6782 19.3442 19.7475 19.2942 19.8217 19.2498L23.2213 17.2196C23.2329 17.2126 23.2441 17.2104 23.2538 17.2104C23.2599 17.2104 23.2653 17.2113 23.2699 17.2125C23.2816 17.2154 23.298 17.2229 23.3092 17.2418L24.2352 18.7923C24.3484 18.9819 24.2863 19.2283 24.0966 19.3416Z" fill="#F0680C"/>
</svg>
