<svg width="40" height="40" viewBox="0 0 40 40" fill="none" xmlns="http://www.w3.org/2000/svg">
<path d="M34.7086 2.89173L33.8725 2.05559C33.6845 1.8676 33.4346 1.7641 33.1688 1.7641C32.903 1.7641 32.6531 1.8676 32.4652 2.05552L19.3837 15.1371C19.2374 15.2833 19.1465 15.4642 19.1105 15.6536L16.4152 18.3489C16.2205 18.3857 16.0414 18.4794 15.8982 18.6225L13.9078 20.6129C13.5198 21.0009 13.5198 21.6321 13.9078 22.0201L14.5307 22.6429C14.1207 23.3112 13.7199 24.2744 13.6453 25.5486L13.1122 25.4536C12.627 25.3671 12.1295 25.5236 11.7811 25.872L5.36144 32.2918C5.11675 32.5366 4.98547 32.8751 5.00128 33.2208C5.01717 33.5666 5.17879 33.8918 5.44492 34.1131L7.45207 35.7824C7.55187 35.8654 7.67304 35.9058 7.79342 35.9058C7.94665 35.9058 8.0988 35.8402 8.20451 35.7132C8.39314 35.4863 8.36222 35.1495 8.13534 34.9608L6.1282 33.2916C6.07933 33.2509 6.06993 33.1991 6.06872 33.1718C6.0675 33.1446 6.07206 33.0922 6.11701 33.0473L6.78369 32.3806L9.02647 34.6234C9.32316 34.92 9.71673 35.1038 10.1348 35.1407C10.3032 35.1556 10.4618 35.2296 10.5814 35.3492L11.4359 36.2039L10.9954 37.0762C10.9642 37.1381 10.9106 37.1576 10.8814 37.1636C10.8523 37.1698 10.7953 37.1732 10.7419 37.1288L10.099 36.5941C9.87209 36.4056 9.53522 36.4365 9.3466 36.6633C9.1579 36.8901 9.18889 37.2269 9.41569 37.4157L10.0586 37.9505C10.2831 38.1371 10.5603 38.236 10.8453 38.236C10.9294 38.236 11.0142 38.2274 11.0986 38.2099C11.4687 38.133 11.7787 37.8955 11.9492 37.558L15.9797 29.5775C16.5417 29.7756 17.1933 29.6503 17.642 29.2017L18.6302 28.2136C19.1186 27.7252 19.2387 26.9844 18.9291 26.3704C18.8925 26.2979 18.8437 26.2295 18.77 26.1258C18.2429 25.3856 17.802 24.5171 18.5294 23.6876C18.5436 23.6713 18.5582 23.6547 18.5726 23.6384C18.5786 23.6344 18.5848 23.6308 18.5908 23.6265C18.6388 23.5913 18.6841 23.5849 18.7102 23.5906C18.7236 23.5935 18.7256 23.5973 18.7288 23.6029C18.8005 23.7317 18.8896 23.8497 18.9934 23.9535C19.3033 24.2634 19.7346 24.4326 20.2005 24.4326C20.2721 24.4326 20.3446 24.4286 20.4175 24.4205C20.9286 24.3637 21.4263 24.1163 21.819 23.7236C22.647 22.8955 22.723 21.5723 21.9849 20.8341C21.7863 20.6356 21.5887 20.5034 21.3961 20.4189C23.5405 17.9739 25.6609 15.5565 26.8391 14.2131L27.3081 13.6784C27.7085 13.222 27.9041 12.6135 27.8447 12.0091L27.7975 11.528C27.7887 11.4379 27.768 11.3516 27.7379 11.2699L30.5523 8.45535C30.761 8.24664 30.761 7.90842 30.5523 7.69978C30.3437 7.49121 30.0054 7.49121 29.7968 7.69978L26.885 10.6117C26.5832 10.5795 26.2817 10.683 26.059 10.9056L22.6055 14.3591L22.1392 13.8928L33.1688 2.86302L33.9012 3.59537L31.6065 5.88995C31.3979 6.09866 31.3979 6.43688 31.6065 6.64552C31.8152 6.85409 32.1534 6.85409 32.362 6.64552L34.7085 4.29894C34.8965 4.11103 35 3.86114 35 3.59537C35 3.3296 34.8966 3.07978 34.7086 2.89173ZM14.7153 21.3165L16.6018 19.43L17.0681 19.8963L15.2676 21.6968C15.2411 21.7233 15.2127 21.7527 15.1829 21.7841L14.7153 21.3165ZM21.2294 21.5894C21.5156 21.8756 21.5054 22.5258 21.0634 22.9679C20.845 23.1863 20.5665 23.3286 20.2996 23.3583C20.1685 23.3729 19.9226 23.3714 19.7488 23.1976C19.715 23.1637 19.6859 23.125 19.6623 23.0827C19.5855 22.9449 19.4834 22.8287 19.3619 22.7382C19.4032 22.691 19.445 22.6434 19.4866 22.596L19.8865 22.8893C19.9816 22.9591 20.0923 22.9928 20.202 22.9928C20.3664 22.9928 20.5285 22.917 20.6332 22.7744C20.8076 22.5364 20.7562 22.2021 20.5183 22.0277L20.1937 21.7897C20.3112 21.6557 20.4291 21.5213 20.5473 21.3864C20.8205 21.3236 20.9892 21.3491 21.2294 21.5894ZM26.744 11.7315L26.7815 12.1131C26.8121 12.4247 26.7113 12.7383 26.505 12.9735L26.036 13.5082C24.3192 15.4654 20.603 19.7022 17.7261 22.9829C16.3432 24.5599 17.5147 26.2048 17.8998 26.7454C17.9292 26.7867 17.9653 26.8375 17.9789 26.859C18.0756 27.0587 18.0342 27.2983 17.8748 27.4578L16.8866 28.4458C16.6806 28.6518 16.3455 28.6518 16.1396 28.4458C16.127 28.4333 15.5674 27.8737 15.5674 27.8737C15.3587 27.6651 15.0204 27.6651 14.8118 27.8737C14.6032 28.0824 14.6032 28.4206 14.8118 28.6293L15.1106 28.928L11.9431 35.1998L11.3369 34.5936C11.0402 34.2969 10.6466 34.1132 10.2288 34.0763C10.0603 34.0615 9.90165 33.9874 9.78205 33.8678L9.1802 33.2659L10.7711 31.3914C10.962 31.1665 10.9344 30.8293 10.7094 30.6385C10.4845 30.4475 10.1473 30.4752 9.95643 30.7001L8.4222 32.5079L7.53933 31.625L12.5367 26.6275C12.6384 26.5259 12.7838 26.48 12.9249 26.5054L14.0766 26.7107C14.2351 26.7389 14.3976 26.6942 14.5194 26.5891C14.6411 26.484 14.7091 26.3296 14.7043 26.1689C14.6402 24.0083 15.6976 22.7779 16.0232 22.4522L18.7551 19.7204C18.9637 19.5117 18.9637 19.1734 18.7551 18.9648C18.5464 18.7562 18.2081 18.7562 17.9996 18.9648L17.8237 19.1407L17.4791 18.7961L19.5574 16.7179L19.902 17.0624L19.8092 17.1552C19.6006 17.3639 19.6006 17.7021 19.8092 17.9107C20.0179 18.1193 20.3562 18.1193 20.5647 17.9107L26.744 11.7315ZM21.85 15.1144L20.6575 16.3069L20.1912 15.8406L21.3837 14.6481L21.85 15.1144Z" fill="#F0680E"/>
<path d="M13.9891 28.9136C13.7461 28.7463 13.4135 28.8076 13.2461 29.0506L10.7802 32.6309C10.6128 32.8739 10.6742 33.2066 10.9172 33.374C11.0098 33.4377 11.1153 33.4683 11.2198 33.4683C11.3896 33.4683 11.5566 33.3874 11.6603 33.237L14.1261 29.6566C14.2935 29.4136 14.2322 29.0809 13.9891 28.9136Z" fill="#F0680E"/>
<path d="M11.0091 30.1679C11.1095 30.2532 11.2324 30.2949 11.3545 30.2949C11.506 30.2949 11.6565 30.2308 11.7621 30.1064L12.2776 29.499C12.4685 29.2741 12.441 28.9369 12.216 28.746C11.9911 28.555 11.6539 28.5828 11.463 28.8076L10.9475 29.4149C10.7566 29.6399 10.7841 29.977 11.0091 30.1679Z" fill="#F0680E"/>
</svg>
